<svg xmlns="http://www.w3.org/2000/svg" viewBox="0 0 1261 820"><defs><style>.cls-1{fill:#2d6cf6;}.cls-2{fill:#9cdff1;}.cls-3{fill:#57ba7f;}.cls-4{fill:#b066e2;}.cls-5{fill:#e0e0dc;}.cls-6{fill:#153ca2;}.cls-7{fill:#e56075;}.cls-8{fill:#a66be1;}.cls-9{fill:#ff7e70;}.cls-10{fill:#77aac1;}.cls-11{fill:#0074ab;}.cls-12{fill:#e3f3f3;}.cls-13{fill:#ede0f8;}.cls-14{fill:#f4f4fd;}</style></defs><g id="forme_bleu_ciel" data-name="forme bleu ciel"><path class="cls-1" d="M655.07,0h346.55l.25,300.48A156.39,156.39,0,0,1,845.48,457h0c-105.16,0-190.41-85.25-190.41-190.41Z" transform="translate(-22 0)"/><g id="bleu_cyan" data-name="bleu cyan"><rect class="cls-2" x="810.66" width="82.76" height="196.86"/></g><path id="forme_verte" data-name="forme verte" class="cls-3" d="M655.07,0H844.72V196.51a96.69,96.69,0,0,1-96.9,96.69h0a93,93,0,0,1-92.8-93Z" transform="translate(-22 0)"/><g id="forme_violet" data-name="forme violet"><circle class="cls-4" cx="909.5" cy="197.5" r="90.5"/></g><circle class="cls-5" cx="823" cy="361" r="96"/></g><g id="form_bleu_foncé" data-name="form bleu foncé"><path class="cls-6" d="M903,0h377V513.31c0,107.09-86.81,193.9-193.9,193.9h0c-100.93,0-182.76-81.83-182.76-182.76Z" transform="translate(-22 0)"/><circle class="cls-7" cx="1069" cy="611" r="96"/><g id="forme_violet-2" data-name="forme violet"><path class="cls-8" d="M1182.64,188h.29A97.07,97.07,0,0,1,1280,285.07V469.79A83.2,83.2,0,0,1,1196.79,553h0A105.8,105.8,0,0,1,1091,447.21V279.64A91.64,91.64,0,0,1,1182.64,188Z" transform="translate(-22 0)"/><g id="forme_blanche" data-name="forme blanche"><circle class="cls-5" cx="1165" cy="285" r="96"/></g></g><g id="forme_orange" data-name="forme orange"><path id="forme_orange-2" data-name="forme orange" class="cls-9" d="M993.64,188h.29A97.07,97.07,0,0,1,1091,285.07V469.79A83.2,83.2,0,0,1,1007.79,553h0A105.8,105.8,0,0,1,902,447.21V279.64A91.64,91.64,0,0,1,993.64,188Z" transform="translate(-22 0)"/><circle class="cls-10" cx="980" cy="467" r="96"/></g><path id="forme_verte-2" data-name="forme verte" class="cls-3" d="M1093,0h187V97.79a90.44,90.44,0,0,1-90.45,90.45h0A96.55,96.55,0,0,1,1093,91.69Z" transform="translate(-22 0)"/><g id="forme_bleu_nuit" data-name="forme bleu nuit"><circle class="cls-11" cx="974.5" cy="94.5" r="94.5"/></g></g><g id="cercle"><circle id="c_1" data-name="c 1" class="cls-12" cx="89" cy="162" r="89"/><circle id="c_2" data-name="c 2" class="cls-12" cx="486.5" cy="381.5" r="48.5"/><circle id="c_3" data-name="c 3" class="cls-13" cx="884.5" cy="771.5" r="48.5"/><circle id="c_4" data-name="c 4" class="cls-14" cx="239.5" cy="574.5" r="54.5"/></g></svg>